<svg id="visual" viewBox="0 0 900 600" width="900" height="600" xmlns="http://www.w3.org/2000/svg" xmlns:xlink="http://www.w3.org/1999/xlink" version="1.1"><rect x="0" y="0" width="900" height="600" fill="#80bae6"></rect><path d="M0 412L21.5 417.5C43 423 86 434 128.8 424.3C171.7 414.7 214.3 384.3 257.2 374.5C300 364.7 343 375.3 385.8 387.3C428.7 399.3 471.3 412.7 514.2 406.5C557 400.3 600 374.7 642.8 375.7C685.7 376.7 728.3 404.3 771.2 413.8C814 423.3 857 414.7 878.5 410.3L900 406L900 601L878.5 601C857 601 814 601 771.2 601C728.3 601 685.7 601 642.8 601C600 601 557 601 514.2 601C471.3 601 428.7 601 385.8 601C343 601 300 601 257.2 601C214.3 601 171.7 601 128.8 601C86 601 43 601 21.5 601L0 601Z" fill="#fa6969"></path><path d="M0 441L21.5 443.7C43 446.3 86 451.7 128.8 453.7C171.7 455.7 214.3 454.3 257.2 447.2C300 440 343 427 385.8 424.2C428.7 421.3 471.3 428.7 514.2 431.7C557 434.7 600 433.3 642.8 434.7C685.7 436 728.3 440 771.2 447.8C814 455.7 857 467.3 878.5 473.2L900 479L900 601L878.5 601C857 601 814 601 771.2 601C728.3 601 685.7 601 642.8 601C600 601 557 601 514.2 601C471.3 601 428.7 601 385.8 601C343 601 300 601 257.2 601C214.3 601 171.7 601 128.8 601C86 601 43 601 21.5 601L0 601Z" fill="#ef5868"></path><path d="M0 442L21.5 445C43 448 86 454 128.8 457.3C171.7 460.7 214.3 461.3 257.2 462.2C300 463 343 464 385.8 469.2C428.7 474.3 471.3 483.7 514.2 479.2C557 474.7 600 456.3 642.8 449.3C685.7 442.3 728.3 446.7 771.2 454.2C814 461.7 857 472.3 878.5 477.7L900 483L900 601L878.5 601C857 601 814 601 771.2 601C728.3 601 685.7 601 642.8 601C600 601 557 601 514.2 601C471.3 601 428.7 601 385.8 601C343 601 300 601 257.2 601C214.3 601 171.7 601 128.8 601C86 601 43 601 21.5 601L0 601Z" fill="#e24768"></path><path d="M0 486L21.5 489C43 492 86 498 128.8 503C171.7 508 214.3 512 257.2 515.3C300 518.7 343 521.3 385.8 519.2C428.7 517 471.3 510 514.2 512.3C557 514.7 600 526.3 642.8 524C685.7 521.7 728.3 505.3 771.2 496.8C814 488.3 857 487.7 878.5 487.3L900 487L900 601L878.5 601C857 601 814 601 771.2 601C728.3 601 685.7 601 642.8 601C600 601 557 601 514.2 601C471.3 601 428.7 601 385.8 601C343 601 300 601 257.2 601C214.3 601 171.7 601 128.8 601C86 601 43 601 21.5 601L0 601Z" fill="#d53668"></path><path d="M0 553L21.5 553.3C43 553.7 86 554.3 128.8 555.8C171.7 557.3 214.3 559.7 257.2 555C300 550.3 343 538.7 385.8 539.7C428.7 540.7 471.3 554.3 514.2 560.7C557 567 600 566 642.8 561C685.7 556 728.3 547 771.2 548.3C814 549.7 857 561.3 878.5 567.2L900 573L900 601L878.5 601C857 601 814 601 771.2 601C728.3 601 685.7 601 642.8 601C600 601 557 601 514.2 601C471.3 601 428.7 601 385.8 601C343 601 300 601 257.2 601C214.3 601 171.7 601 128.8 601C86 601 43 601 21.5 601L0 601Z" fill="#c62368"></path></svg>