<svg id="visual" viewBox="0 0 900 600" width="900" height="600" xmlns="http://www.w3.org/2000/svg" xmlns:xlink="http://www.w3.org/1999/xlink" version="1.1"><g stroke-width="1" stroke-linejoin="bevel"><path d="M527 281L631 227L501 209Z" fill="#1a7186" stroke="#1a7186"></path><path d="M527 281L628 300L631 227Z" fill="#07444c" stroke="#07444c"></path><path d="M723 292L705 179L631 227Z" fill="#07444c" stroke="#07444c"></path><path d="M592 60L460 112L501 209Z" fill="#0e5a68" stroke="#0e5a68"></path><path d="M460 112L422 184L501 209Z" fill="#146577" stroke="#146577"></path><path d="M501 209L376 263L527 281Z" fill="#0e5a68" stroke="#0e5a68"></path><path d="M403 369L519 369L527 281Z" fill="#001c1c" stroke="#001c1c"></path><path d="M527 281L519 369L628 300Z" fill="#042f33" stroke="#042f33"></path><path d="M592 60L501 209L631 227Z" fill="#001c1c" stroke="#001c1c"></path><path d="M519 369L611 384L628 300Z" fill="#053a3f" stroke="#053a3f"></path><path d="M628 300L723 292L631 227Z" fill="#053a3f" stroke="#053a3f"></path><path d="M660 77L592 60L631 227Z" fill="#217c96" stroke="#217c96"></path><path d="M664 404L723 292L628 300Z" fill="#053a3f" stroke="#053a3f"></path><path d="M705 179L660 77L631 227Z" fill="#042f33" stroke="#042f33"></path><path d="M319 174L376 263L422 184Z" fill="#0a4f5a" stroke="#0a4f5a"></path><path d="M422 184L376 263L501 209Z" fill="#042f33" stroke="#042f33"></path><path d="M611 384L664 404L628 300Z" fill="#2988a6" stroke="#2988a6"></path><path d="M629 520L664 404L611 384Z" fill="#053a3f" stroke="#053a3f"></path><path d="M479 0L421 75L460 112Z" fill="#053a3f" stroke="#053a3f"></path><path d="M460 112L421 75L422 184Z" fill="#07444c" stroke="#07444c"></path><path d="M376 263L403 369L527 281Z" fill="#053a3f" stroke="#053a3f"></path><path d="M519 369L515 486L611 384Z" fill="#07444c" stroke="#07444c"></path><path d="M812 394L782 287L723 292Z" fill="#2988a6" stroke="#2988a6"></path><path d="M723 292L782 287L705 179Z" fill="#032527" stroke="#032527"></path><path d="M813 60L702 0L660 77Z" fill="#217c96" stroke="#217c96"></path><path d="M702 0L576 0L592 60Z" fill="#0a4f5a" stroke="#0a4f5a"></path><path d="M592 60L479 0L460 112Z" fill="#07444c" stroke="#07444c"></path><path d="M576 0L479 0L592 60Z" fill="#032527" stroke="#032527"></path><path d="M327 96L422 184L421 75Z" fill="#07444c" stroke="#07444c"></path><path d="M327 96L319 174L422 184Z" fill="#1a7186" stroke="#1a7186"></path><path d="M376 263L327 323L403 369Z" fill="#1a7186" stroke="#1a7186"></path><path d="M319 174L327 323L376 263Z" fill="#032527" stroke="#032527"></path><path d="M479 0L437 0L421 75Z" fill="#053a3f" stroke="#053a3f"></path><path d="M782 287L823 194L705 179Z" fill="#0e5a68" stroke="#0e5a68"></path><path d="M660 77L702 0L592 60Z" fill="#1a7186" stroke="#1a7186"></path><path d="M394 463L519 369L403 369Z" fill="#1a7186" stroke="#1a7186"></path><path d="M394 463L515 486L519 369Z" fill="#2988a6" stroke="#2988a6"></path><path d="M813 60L660 77L705 179Z" fill="#032527" stroke="#032527"></path><path d="M437 0L327 96L421 75Z" fill="#042f33" stroke="#042f33"></path><path d="M629 520L726 461L664 404Z" fill="#07444c" stroke="#07444c"></path><path d="M664 404L812 394L723 292Z" fill="#0a4f5a" stroke="#0a4f5a"></path><path d="M782 287L900 273L823 194Z" fill="#146577" stroke="#146577"></path><path d="M331 466L394 463L403 369Z" fill="#2988a6" stroke="#2988a6"></path><path d="M726 461L812 394L664 404Z" fill="#1a7186" stroke="#1a7186"></path><path d="M823 194L813 60L705 179Z" fill="#042f33" stroke="#042f33"></path><path d="M520 600L629 520L515 486Z" fill="#032527" stroke="#032527"></path><path d="M515 486L629 520L611 384Z" fill="#217c96" stroke="#217c96"></path><path d="M813 60L797 0L702 0Z" fill="#001c1c" stroke="#001c1c"></path><path d="M265 405L331 466L403 369Z" fill="#07444c" stroke="#07444c"></path><path d="M378 600L520 600L515 486Z" fill="#0e5a68" stroke="#0e5a68"></path><path d="M265 405L403 369L327 323Z" fill="#0a4f5a" stroke="#0a4f5a"></path><path d="M812 394L900 273L782 287Z" fill="#0e5a68" stroke="#0e5a68"></path><path d="M823 194L900 96L813 60Z" fill="#146577" stroke="#146577"></path><path d="M813 60L900 0L797 0Z" fill="#042f33" stroke="#042f33"></path><path d="M237 69L228 186L319 174Z" fill="#0a4f5a" stroke="#0a4f5a"></path><path d="M319 174L228 186L327 323Z" fill="#0a4f5a" stroke="#0a4f5a"></path><path d="M900 273L900 168L823 194Z" fill="#2988a6" stroke="#2988a6"></path><path d="M170 339L265 405L327 323Z" fill="#0a4f5a" stroke="#0a4f5a"></path><path d="M900 168L900 96L823 194Z" fill="#032527" stroke="#032527"></path><path d="M327 96L237 69L319 174Z" fill="#217c96" stroke="#217c96"></path><path d="M267 0L237 69L327 96Z" fill="#053a3f" stroke="#053a3f"></path><path d="M726 461L812 496L812 394Z" fill="#0a4f5a" stroke="#0a4f5a"></path><path d="M812 394L900 426L900 273Z" fill="#053a3f" stroke="#053a3f"></path><path d="M790 600L812 496L726 461Z" fill="#0e5a68" stroke="#0e5a68"></path><path d="M437 0L267 0L327 96Z" fill="#146577" stroke="#146577"></path><path d="M378 600L515 486L394 463Z" fill="#0a4f5a" stroke="#0a4f5a"></path><path d="M629 520L665 600L726 461Z" fill="#042f33" stroke="#042f33"></path><path d="M520 600L626 600L629 520Z" fill="#032527" stroke="#032527"></path><path d="M626 600L665 600L629 520Z" fill="#053a3f" stroke="#053a3f"></path><path d="M812 496L900 426L812 394Z" fill="#032527" stroke="#032527"></path><path d="M900 96L900 0L813 60Z" fill="#042f33" stroke="#042f33"></path><path d="M228 186L170 339L327 323Z" fill="#2988a6" stroke="#2988a6"></path><path d="M306 600L378 600L331 466Z" fill="#053a3f" stroke="#053a3f"></path><path d="M101 293L170 339L228 186Z" fill="#001c1c" stroke="#001c1c"></path><path d="M190 531L331 466L265 405Z" fill="#032527" stroke="#032527"></path><path d="M331 466L378 600L394 463Z" fill="#07444c" stroke="#07444c"></path><path d="M267 0L204 0L237 69Z" fill="#053a3f" stroke="#053a3f"></path><path d="M237 69L125 176L228 186Z" fill="#042f33" stroke="#042f33"></path><path d="M665 600L790 600L726 461Z" fill="#032527" stroke="#032527"></path><path d="M812 496L900 534L900 426Z" fill="#0e5a68" stroke="#0e5a68"></path><path d="M170 339L169 419L265 405Z" fill="#042f33" stroke="#042f33"></path><path d="M84 68L125 176L237 69Z" fill="#001c1c" stroke="#001c1c"></path><path d="M170 339L66 376L169 419Z" fill="#0e5a68" stroke="#0e5a68"></path><path d="M190 531L306 600L331 466Z" fill="#2988a6" stroke="#2988a6"></path><path d="M790 600L900 534L812 496Z" fill="#032527" stroke="#032527"></path><path d="M125 176L101 293L228 186Z" fill="#001c1c" stroke="#001c1c"></path><path d="M169 419L190 531L265 405Z" fill="#042f33" stroke="#042f33"></path><path d="M97 508L190 531L169 419Z" fill="#2988a6" stroke="#2988a6"></path><path d="M204 0L131 0L237 69Z" fill="#146577" stroke="#146577"></path><path d="M125 176L0 225L101 293Z" fill="#146577" stroke="#146577"></path><path d="M190 531L237 600L306 600Z" fill="#217c96" stroke="#217c96"></path><path d="M790 600L900 600L900 534Z" fill="#032527" stroke="#032527"></path><path d="M131 0L84 68L237 69Z" fill="#053a3f" stroke="#053a3f"></path><path d="M0 260L66 376L101 293Z" fill="#053a3f" stroke="#053a3f"></path><path d="M101 293L66 376L170 339Z" fill="#042f33" stroke="#042f33"></path><path d="M190 531L83 600L237 600Z" fill="#042f33" stroke="#042f33"></path><path d="M66 376L97 508L169 419Z" fill="#032527" stroke="#032527"></path><path d="M84 68L0 225L125 176Z" fill="#1a7186" stroke="#1a7186"></path><path d="M66 376L0 390L97 508Z" fill="#042f33" stroke="#042f33"></path><path d="M0 225L0 260L101 293Z" fill="#1a7186" stroke="#1a7186"></path><path d="M0 260L0 390L66 376Z" fill="#053a3f" stroke="#053a3f"></path><path d="M84 68L0 61L0 225Z" fill="#2988a6" stroke="#2988a6"></path><path d="M0 0L0 61L84 68Z" fill="#053a3f" stroke="#053a3f"></path><path d="M131 0L0 0L84 68Z" fill="#1a7186" stroke="#1a7186"></path><path d="M0 526L83 600L97 508Z" fill="#1a7186" stroke="#1a7186"></path><path d="M97 508L83 600L190 531Z" fill="#042f33" stroke="#042f33"></path><path d="M0 390L0 526L97 508Z" fill="#0e5a68" stroke="#0e5a68"></path><path d="M0 526L0 600L83 600Z" fill="#032527" stroke="#032527"></path></g></svg>